<svg enable-background="new 0 0 250 224" viewBox="0 0 250 224" xmlns="http://www.w3.org/2000/svg" xmlns:xlink="http://www.w3.org/1999/xlink"><linearGradient id="a" gradientUnits="userSpaceOnUse" x1="52.6052" x2="199.2948" y1="-7.5472" y2="201.9473"><stop offset="0" stop-color="#a8a8a5"/><stop offset=".149" stop-color="#bebdbb"/><stop offset=".4426" stop-color="#e9e8e7"/><stop offset=".589" stop-color="#fff"/><stop offset=".6966" stop-color="#eee"/><stop offset=".838" stop-color="#e3e4e4"/><stop offset="1" stop-color="#e0e1e1"/></linearGradient><path d="m3.8 163.8h31.9v-40h-34.7l8.2 23.4z" fill="#00518d"/><path d="m3 166.4h32.7v-2.6h-31.9z" fill="#dbdcdd"/><path d="m1 172.6h34.7v-6.2h-32.7z" fill="#cd2027"/><path d="m248.1 163.8h-31.8v-40h34.7l-8.3 23.4z" fill="#00518d"/><path d="m249 166.4h-32.7v-2.6h31.8z" fill="#dbdcdd"/><path d="m251 172.6h-34.7v-6.2h32.7z" fill="#cd2027"/><path d="m31.4.3-.1 193.8 94.2 29.3 95.1-29.5v-193.5z" fill="#fff"/><path d="m220.3 0h-188.7-.7v194.4l95.1 29.5 95.1-29.5v-194.4zm0 193.6-94.3 29.4-94.3-29.2v-193.1h188.7z" fill="#adadad"/><path d="m35.4 4.5v185.4l90.6 28.1 90.5-28.1v-185.4z" fill="url(#a)"/><path d="m75.9 178.6c-.6 1-1.5 1.6-2.5 1.8l4.4 8.6h-3.1l-3.9-8h-5.9v8h-2.7v-19h9.2c2.4 0 3.8.9 4.5 2.2.4.8.7 1.8.7 3.2-.1 1.5-.3 2.5-.7 3.2zm-2.4-4.8c-.4-.8-1.2-1.3-2.7-1.3h-5.8v6h6.2c1.1 0 1.9-.4 2.2-1 .2-.4.3-1.2.3-1.8 0-.7-.1-1.5-.2-1.9z" fill="#adadad"/><path d="m81.9 189h-2.9l7.3-19h3.5l6.9 19h-2.9l-1.7-4.8h-8.4zm6.6-14.7-.5-1.6-.5 1.7-2.9 7.4h6.6z" fill="#adadad"/><path d="m110.1 189-8.8-14.9v14.9h-2.7v-19h3.3l8.6 14.6v-14.6h2.7v19z" fill="#adadad"/><path d="m128.3 189-7-8.9-1.8 1.9v7h-2.8v-19h2.8v8.7l8.7-8.7h3.4l-8.2 8.3 8.4 10.7z" fill="#adadad"/><path d="m133.7 189v-19h2.8v19z" fill="#adadad"/><path d="m151.5 189-8.8-14.9v14.9h-2.7v-19h3.3l8.6 14.6v-14.6h2.7v19z" fill="#adadad"/><path d="m171.1 189-.1-2.3c-.7 1.1-2.3 2.5-5.7 2.5-4.2 0-8-1.8-8-9.7 0-5.7 2.1-9.7 8.3-9.7 5.6 0 7.7 3 7.7 6.6h-2.7c0-2.4-1.2-4.1-4.9-4.1-3.6 0-5.6 1.8-5.6 7.3s1.7 7.3 5.6 7.3c2.8 0 4.5-1.5 5-3.1.1-.3 0-2.6 0-2.7h-6.1v-2.4h8.7v5.4 5h-2.2z" fill="#adadad"/><path d="m183.6 189.3c-4.8 0-7-1.5-7.8-3.9-.2-.6-.3-1.4-.3-1.9h2.9c0 .3.1 1 .3 1.3.7 1.5 2.3 2.1 5 2.1 3.4 0 4.6-1.2 4.6-2.8 0-1.9-1.2-2.7-4.2-3.3-.7-.1-1.8-.4-2.8-.6-3.7-.7-5.5-2.2-5.5-5.3 0-2.9 2.2-5.1 7.4-5.1 4.4 0 6.5 1.5 7.4 3.9.2.6.3 1.3.3 1.7h-2.9c0-.2 0-.7-.2-1.1-.7-1.5-1.8-2.1-4.8-2.1-3.3 0-4.4 1.1-4.4 2.5 0 1.7 1 2.4 4.3 3 .9.2 2 .4 2.7.5 3.5.6 5.5 2.2 5.5 5.3-.1 3.6-2.4 5.8-7.5 5.8z" fill="#adadad"/><path d="m63.5 100.6c-1.3 3.8-4.5 5.7-8.8 5.7-4 0-6.5-1.2-8.3-4.3-1.7-2.9-2.2-8.8-2.2-13.9 0-6.2.5-10.2 1.8-13 1.5-3.2 4.4-4.8 8.7-4.8 4.4 0 7.5 2 8.6 5.1.8 2.4 1.1 4.7 1.1 7.4h-4c0-1.8-.4-4.8-1-6.2-.8-1.7-2.4-2.5-4.8-2.5-2.5 0-4.1.8-5 2.7-1.1 2.4-1.3 6.9-1.3 11.4 0 4.3.6 10.2 1.4 11.9 1.1 2.1 3 2.8 5 2.8 2.2 0 4.1-.8 4.9-3 .8-2 .9-4.1.9-5.8h4c.1 2.2-.2 4.4-1 6.5z" fill="#323333"/><path d="m86.1 75.2c1.2 2.8 1.6 7.1 1.6 12.9 0 6.4-.5 10.3-1.7 13.1-1.6 3.5-4.1 5.1-8.5 5.1-4.5 0-7.3-1.8-8.6-5.1-1-2.5-1.7-6.2-1.7-13 0-5.8.5-9.9 1.7-12.9 1.2-2.9 4-5 8.6-5 4.4-.1 7.2 1.8 8.6 4.9zm-3.8 24.8c.9-2 1.4-5.9 1.4-11.8 0-3.6-.3-9.1-1.2-11.2-.7-1.7-2.4-3.1-5.1-3.1-2.8 0-4.2 1.3-4.9 3-.9 2.1-1.2 7.6-1.2 11.3 0 4.1.2 9 1.2 11.5.9 2.3 3.1 3 4.9 3 2.3.1 4.1-.9 4.9-2.7z" fill="#323333"/><path d="m91.6 106v-35.4h4v31.7h11.6v3.7z" fill="#323333"/><path d="m110 106v-35.4h4v31.7h11.7v3.7z" fill="#323333"/><path d="m128.7 106v-35.4h16.2v3.7h-12.2v12h11.5v3.7h-11.5v12.2h12.3v3.7h-16.3z" fill="#323333"/><path d="m164 106-.2-2.8c-.9 1.5-2.9 3.1-6.6 3.1-6.8 0-9.7-4.3-9.7-18 0-11.9 1.8-18.1 10.1-18.1 7.3 0 9.2 5.6 9.2 11.8h-3.9c0-4.5-.9-8.1-5.3-8.1-5 0-6 3.2-6 14.4 0 10.6.8 14.5 6.1 14.5 3.2 0 5-1.9 5.6-4.3v-8.2h-6.8v-3.6h10.5v10.5 8.7z" fill="#323333"/><path d="m170.9 106v-35.4h16.2v3.7h-12.2v12h11.5v3.7h-11.5v12.2h12.3v3.7h-16.3z" fill="#323333"/><path d="m199.3 106.3c-5.8 0-8.7-2.1-9.4-5.9-.3-1.7-.3-3.2-.3-4.3h3.9c0 .8.1 2.5.3 3.5.4 2.4 2.5 3.3 5.6 3.3 3.4 0 5.2-1.6 5.2-5.1 0-3.3-1.2-5.2-5-7.5-.8-.5-2.4-1.5-3.5-2.2-4-2.5-6.5-5-6.5-9.8 0-4.7 3-8 9.2-7.9 5.7 0 8.4 2.4 9.2 6.5.3 1.3.2 2.5.2 3.6h-4c0-.6 0-2-.1-2.9-.5-2.5-2-3.7-5.4-3.7-3.5 0-4.9 1.6-4.9 4.4 0 2.9 1.2 4.5 5.1 6.9 1.1.7 2.5 1.6 3.3 2 4.1 2.5 6.5 5.2 6.5 10.2 0 5.8-3.3 8.9-9.4 8.9z" fill="#323333"/><path d="m50.5 56.5v-37.8h-6.2v-6.3h16.8c4.6 0 8.1.3 10.4.8 2.3.6 4.3 2 6.1 4.2 1.8 2.3 2.6 4.9 2.6 8 0 2.3-.5 4.5-1.6 6.3-1.1 1.9-2.6 3.3-4.6 4.3 2.8 1 5 2.6 6.5 4.8s2.3 4.8 2.3 7.7c0 2.5-.6 4.7-1.7 6.8s-2.6 3.6-4.5 4.7-3.9 1.9-6.1 2.2c-2.2.4-5.2.6-9 .6h-17.2v-6.3zm7.6-23.2h4.8c3.6 0 6.2-.6 7.6-1.9s2.2-3.1 2.2-5.6c0-4.8-3.3-7.2-9.8-7.2h-4.8zm0 23.2h2.9c3.7 0 6.5-.2 8.2-.6s3.2-1.3 4.3-2.6c1.1-1.4 1.6-3.2 1.6-5.3 0-2-.5-3.6-1.6-5-1.1-1.3-2.4-2.2-4.1-2.7-1.7-.4-4-.7-7-.7h-4.4z" fill="#323333"/><path d="m90.1 56.5v-37.8h-6.5v-6.3h41.9v15.2h-6.2v-8.9h-21.5v15h18.7v6.3h-18.7v16.5h21.5v-9.2h6.2v15.5h-41.9v-6.3z" fill="#323333"/><path d="m130.1 63v-18.3h6.3v4.5c3 5.5 7 8.2 11.9 8.2 2.5 0 4.6-.8 6.3-2.3s2.6-3.5 2.6-6c0-2.4-.7-4.1-2.1-5.2s-4-2.1-7.9-3.1c-4.5-1.2-7.9-2.4-10-3.4s-3.9-2.6-5.2-4.6-1.9-4.4-1.9-7.1c0-4.2 1.4-7.6 4.2-10.1s6.4-3.8 10.6-3.8c4 0 7.8 1.3 11.2 3.9v-3.4h6.2v15.3h-6.2v-3.5c-2.6-3.9-6.2-5.8-10.7-5.8-2.8 0-4.9.6-6.3 1.9-1.5 1.3-2.2 2.8-2.2 4.6 0 1.4.4 2.5 1.1 3.6.7 1 1.7 1.8 2.9 2.3s3.4 1.2 6.9 2c4.4 1.2 7.7 2.2 9.7 3.2s3.7 2.7 5.2 5 2.2 5 2.2 8.1c0 4.3-1.5 7.9-4.6 10.7-3 2.8-6.8 4.2-11.3 4.2-4.6 0-8.7-1.7-12.4-5v4.1z" fill="#323333"/><path d="m183.7 56.7v-37.8h-10.4v12.9h-6.2v-19.3h40.9v19.2h-6.2v-12.8h-10.4v37.8h6.6v6.3h-20.8v-6.3z" fill="#323333"/><path d="m18.8 162.3 12.1 10.3v-10.3z" fill="#333"/><path d="m233.1 162.3-12.1 10.3v-10.3z" fill="#333"/><path d="m18.8 113.5h214.3v40h-214.3z" fill="#005fa7"/><path d="m18.8 153.5h214.3v2.6h-214.3z" fill="#fff"/><path d="m18.8 156.1h214.3v6.2h-214.3z" fill="#ed1c25"/><g fill="#fff"><path d="m48.6 154.2c-7.6 0-13.2-2.8-13.2-10 0-.7 0-20.8 0-20.8h6.7v20.3c0 3.2 2.4 5.1 6.7 5.1 3.8 0 6.5-1.9 6.5-5 0-.6 0-20.3 0-20.3h6.7v21.2c-.1 6.3-5.6 9.5-13.4 9.5z"/><path d="m60.3 153.8v-6.2h5.9v6.2z"/><path d="m80.7 154.2c-9.2 0-12.5-2.8-13.7-6.6-.3-1-.4-2.5-.4-3.1h6.9c0 .5.2 1.5.4 1.9.8 1.8 2.8 2.5 6.9 2.5 4.6 0 6.2-1.3 6.2-3.3 0-2.5-1.3-3.4-6.2-4.3-.9-.2-3.1-.6-4.5-.8-5.9-1.1-9.6-3.8-9.6-8.9 0-5.2 4.2-8.6 13.1-8.6 7.6 0 11.2 2.7 12.7 6.5.4 1 .7 2.2.7 2.9h-6.9c0-.3-.2-1-.4-1.5-.8-1.7-2.5-2.6-6.3-2.6-5 0-6 1.1-6 2.8 0 2.2 1.8 3.1 6.8 4.1 1.5.3 3.5.7 4.2.8 6 1.2 9.2 3.7 9.2 8.9-.1 5.6-4.4 9.3-13.1 9.3z"/><path d="m92.2 153.8v-6.2h6v6.2z"/><path d="m118.8 153.8-12.2-20.6v20.6h-6.4v-30.4h7.7l11.7 19.6v-19.6h6.4v30.4z"/><path d="m149 152.1c-2 1.3-4.7 2-8.3 2-5 0-9-1.5-11.2-4.9-1.1-1.8-1.7-4-1.7-6.8 0-2.6.7-4.9 2-6.6 2.2-3.1 6-5 10.9-5 5.1 0 8.7 1.9 10.6 4.8 1.7 2.4 2.3 5.7 1.9 9.1h-19c0 1 .5 1.8 1.2 2.7.9 1 2.8 1.7 5.2 1.7 1.8 0 3.2-.3 4.1-.7 1.2-.5 1.8-1.3 1.9-1.8h6.4c-.4 2-1.7 4.1-4 5.5zm-3.3-14.3c-.9-.9-2.5-1.7-4.9-1.7-2.3 0-4 .6-5.1 1.6-.8.7-1.4 2-1.4 2.7h12.6c-.1-.7-.4-1.8-1.2-2.6z"/><path d="m185.2 153.8h-7.7s-4.4-12.9-4.5-13.6c0-.3-.3-1.6-.3-1.6s-.2 1.3-.3 1.6c0 .8-4.4 13.7-4.4 13.7h-7.8l-8-22.4h6.8l5.4 16.7 4.9-16.7h7.3l5.1 16.7 5.3-16.7h6.4z"/><path d="m205.3 154.2c-7.6 0-11.2-1.5-12.1-5.2-.2-.9-.2-1.5-.2-2.2h6.5c0 .3 0 .7.2 1.1.4 1.1 2.1 1.3 5.7 1.3 3.7 0 4.9-.7 4.9-2s-1.3-1.6-4.7-2c-.9-.1-3.5-.5-4.9-.7-4.9-.7-7.3-2.9-7.3-7.1 0-4 3.6-6.6 10.8-6.6 6.2 0 10 1.6 11.2 4.8.3.9.4 2.2.4 2.7h-6.3c0-.2-.1-.9-.3-1.2-.4-.6-1.6-1.1-4.7-1.1-3.6 0-4.7.6-4.7 1.6s.7 1.3 3.9 1.8c1.3.2 4.4.7 5.2.8 5.4.8 7.8 2.8 7.8 7-.1 4.6-3.6 7-11.4 7z"/><path d="m133.3 127.5c.2-.3.3-.6.3-.9h1.7c0 .8-.3 1.4-.8 1.9.4.3.9.7 1.3 1h-2.3c-.1-.1-.2-.2-.3-.2-.5.2-1.1.3-1.7.3-1.5 0-2.8-.3-2.8-1.4 0-.1 0-.2 0-.3 0-.7.7-1.1 1.4-1.5-.4-.5-.5-.9-.5-1.3 0-.1 0-.2 0-.3 0-.8.8-1.5 2-1.5s1.8.7 1.9 1.4v.3c0 .8-.6 1.3-1.2 1.7.3.2.6.5 1 .8zm-2.8.4c0 .3.3.4.9.4.2 0 .4 0 .5-.1-.3-.3-.7-.6-1-.8-.2.1-.4.3-.4.5zm1.5-2.8c0-.3-.1-.5-.4-.5s-.4.2-.4.4v.2c0 .2.1.4.2.6.4-.3.6-.5.6-.7z"/><path d="m145 129.4h-2s-.9-3.5-.9-3.7c0 .2-.9 3.7-.9 3.7h-2l-1.7-6.1h2s.9 3.8.9 4c0-.2.9-4 .9-4h1.9s.9 3.8.9 4c0-.2.9-4 .9-4h1.8z"/><path d="m153.3 126.3c0 2.1-1 3.2-3.3 3.2-2.2 0-3.3-1.1-3.3-3.2 0-2 1-3.1 3.3-3.1 2.4 0 3.3 1.1 3.3 3.1zm-1.9.1c0-1.2-.3-1.7-1.4-1.7-1 0-1.4.5-1.4 1.7 0 1.3.5 1.7 1.4 1.7s1.4-.4 1.4-1.7z"/><path d="m159.8 126.4c-.2.3-.5.5-.8.6l1.4 2.4h-2.1l-1.1-2.1h-1.3v2.1h-1.7v-6.1h3.9c.8 0 1.3.2 1.7.6.2.3.4.7.4 1.3-.2.6-.3.9-.4 1.2zm-1.7-1.4c-.1-.2-.3-.3-.5-.3h-1.6v1.2h1.6c.2 0 .4-.1.5-.2 0-.1.1-.3.1-.4 0 0 0-.2-.1-.3z"/><path d="m161.3 129.4v-6.1h1.9v4.6h2.9v1.5z"/><path d="m170.5 129.4h-3.4v-6.1h3.4c1.1 0 1.8.3 2.2.8s.4 1 .4 2.1c0 1.3-.1 1.8-.4 2.3-.4.6-1.1.9-2.2.9zm.7-3.1c0-.4 0-1-.2-1.2-.2-.3-.5-.3-.9-.3h-1.2v3.2h1.2c.5 0 .7-.1.9-.3s.2-.9.2-1.4z"/><path d="m181.8 126.4c-.2.3-.5.5-.8.6l1.4 2.4h-2.1l-1.1-2.1h-1.3v2.1h-1.7v-6.1h3.9c.8 0 1.3.2 1.7.6.2.3.4.7.4 1.3-.2.6-.3.9-.4 1.2zm-1.7-1.4c-.1-.2-.3-.3-.5-.3h-1.6v1.2h1.6c.2 0 .4-.1.5-.2 0-.1.1-.3.1-.4 0 0 0-.2-.1-.3z"/><path d="m183.4 129.4v-6.1h5.2v1.4h-3.4v.9h3.2v1.5h-3.2v.9h3.4v1.4z"/><path d="m195.3 126.9c-.4.4-.9.6-1.7.6-.2 0-1.9 0-1.9 0v1.9h-1.9v-6.1h3.8c.7 0 1.3.2 1.6.5.4.3.6.8.6 1.6-.1.7-.2 1.2-.5 1.5zm-1.5-1.9c-.1-.2-.3-.3-.6-.3h-1.5v1.4h1.5c.4 0 .5-.1.6-.3.1-.1.1-.2.1-.4 0-.1-.1-.3-.1-.4z"/><path d="m202.9 126.3c0 2.1-1 3.2-3.3 3.2-2.2 0-3.3-1.1-3.3-3.2 0-2 1-3.1 3.3-3.1 2.4 0 3.3 1.1 3.3 3.1zm-1.9.1c0-1.2-.3-1.7-1.4-1.7-1 0-1.4.5-1.4 1.7 0 1.3.5 1.7 1.4 1.7s1.4-.4 1.4-1.7z"/><path d="m209.4 126.4c-.2.3-.5.5-.8.6l1.4 2.4h-2.1l-1.1-2.1h-1.3v2.1h-1.8v-6.1h3.9c.8 0 1.3.2 1.7.6.2.3.4.7.4 1.3-.1.6-.2.9-.3 1.2zm-1.7-1.4c-.1-.2-.3-.3-.5-.3h-1.6v1.2h1.6c.2 0 .4-.1.5-.2 0-.1.1-.3.1-.4 0 0 0-.2-.1-.3z"/><path d="m214 124.8v4.6h-1.9v-4.6h-1.9v-1.5h5.8v1.5z"/></g></svg>